{"title":"The.Hoarder.2015.720p.BluRay.H264.AAC-RARBG","uid":12518488,"size":1116247735,"categoryP":"video","categoryS":"hd___movies","magnet":"?xt=urn:btih:bcf2a56409c3695ec6496376fde5ed4d92ef9964&amp;dn=The.Hoarder.2015.720p.BluRay.H264.AAC-RARBG&amp;tr=udp%3A%2F%2Ftracker.leechers-paradise.org%3A6969&amp;tr=udp%3A%2F%2Fzer0day.ch%3A1337&amp;tr=udp%3A%2F%2Fopen.demonii.com%3A1337&amp;tr=udp%3A%2F%2Ftracker.coppersurfer.tk%3A6969&amp;tr=udp%3A%2F%2Fexodus.desync.com%3A6969","seeders":0,"leechers":1,"uploader":"Joker__TPB","files":4,"time":1443806982,"description":"\nVideo\r\nID                                       : 1\r\nFormat                                   : AVC\r\nFormat/Info                              : Advanced Video Codec\r\nFormat profile                           :   \r\nFormat settings, CABAC                   : Yes\r\nFormat settings, ReFrames                : 4 frames\r\nCodec ID                                 : avc1\r\nCodec ID/Info                            : Advanced Video Coding\r\nDuration                                 : 1h 25mn\r\nBit rate                                 : 1 500 Kbps\r\nWidth                                    : 1 280 pixels\r\nHeight                                   : 534 pixels\r\nDisplay aspect ratio                     : 2.40:1\r\nFrame rate mode                          : Constant\r\nFrame rate                               : 24.000 fps\r\nColor space                              : YUV\r\nChroma subsampling                       : 4:2:0\r\nBit depth                                : 8 bits\r\nScan type                                : Progressive\r\nBits/(Pixel*Frame)                       : 0.091\r\nStream size                              : 922 MiB (87%)\r\nWriting library                          : x264 core 148 r2597M e86f3a1\r\nEncoding settings                        : cabac=1 / ref=4 / deblock=1:-1:-1 / analyse=0x3:0x113 / me=umh / subme=9 / psy=1 / psy_rd=1.00:0.15 / mixed_ref=1 / me_range=24 / chroma_me=1 / trellis=2 / 8x8dct=1 / cqm=0 / deadzone=21,11 / fast_pskip=1 / chroma_qp_offset=-3 / threads=32 / lookahead_threads=4 / sliced_threads=0 / nr=0 / decimate=1 / interlaced=0 / bluray_compat=0 / constrained_intra=0 / bframes=3 / b_pyramid=2 / b_adapt=1 / b_bias=0 / direct=1 / weightb=1 / open_gop=0 / weightp=2 / keyint=250 / keyint_min=25 / scenecut=40 / intra_refresh=0 / rc_lookahead=50 / rc=2pass / mbtree=1 / bitrate=1500 / ratetol=1.0 / qcomp=0.60 / qpmin=0 / qpmax=69 / qpstep=4 / cplxblur=20.0 / qblur=0.5 / vbv_maxrate=31250 / vbv_bufsize=31250 / nal_hrd=none / filler=0 / ip_ratio=1.40 / aq=3:1.00\r\nEncoded date                             : UTC 1904-01-01 00:00:00\r\nTagged date                              : UTC 1904-01-01 00:00:00\r\n\r\nAudio\r\nID                                       : 2\r\nFormat                                   : AAC\r\nFormat/Info                              : Advanced Audio Codec\r\nFormat profile                           : LC\r\nCodec ID                                 : 40\r\nDuration                                 : 1h 25mn\r\nBit rate mode                            : Constant\r\nBit rate                                 : 224 Kbps\r\nChannel(s)                               : 2 channels\r\nChannel(s)_Original                      : 6 channels\r\nChannel positions                        : Front: L C R, Side: L R, LFE\r\nSampling rate                            : 48.0 KHz\r\nCompression mode                         : Lossy\r\nStream size                              : 138 MiB (13%)\r\nLanguage                                 : English\r\nEncoded date                             : UTC 1904-01-01 00:00:00\r\nTagged date                              : UTC 1904-01-01 00:00:00\r\n\r\nMenu #1\r\nID                                       : 3\r\nCodec ID                                 : text\r\nDuration                                 : 1h 25mn\r\nLanguage                                 : English\r\nEncoded date                             : UTC 1904-01-01 00:00:00\r\nTagged date                              : UTC 1904-01-01 00:00:00\r\nBit rate mode                            : CBR\r\n00:00:00.000                             : 00:00:00.000\r\n00:06:20.043                             : 00:06:20.000\r\n00:13:44.293                             : 00:13:44.250\r\n00:21:43.418                             : 00:21:43.375\r\n00:27:33.293                             : 00:27:33.250\r\n00:34:16.668                             : 00:34:16.625\r\n00:41:52.626                             : 00:41:52.583\r\n00:49:00.293                             : 00:49:00.250\r\n00:57:39.793                             : 00:57:39.750\r\n01:03:16.501                             : 01:03:16.458\r\n01:10:27.501                             : 01:10:27.458\r\n01:17:10.668                             : 01:17:10.625\r\n\r\nMenu #2\r\n00:00:00.043                             : 00:00:00.000\r\n00:06:20.043                             : 00:06:20.000\r\n00:13:44.293                             : 00:13:44.250\r\n00:21:43.418                             : 00:21:43.375\r\n00:27:33.293                             : 00:27:33.250\r\n00:34:16.668                             : 00:34:16.625\r\n00:41:52.626                             : 00:41:52.583\r\n00:49:00.293                             : 00:49:00.250\r\n00:57:39.793                             : 00:57:39.750\r\n01:03:16.501                             : 01:03:16.458\r\n01:10:27.501                             : 01:10:27.458\r\n01:17:10.668                             : 01:17:10.625","torrent":{"xt":"urn:btih:bcf2a56409c3695ec6496376fde5ed4d92ef9964","amp;dn":"The.Hoarder.2015.720p.BluRay.H264.AAC-RARBG","amp;tr":["udp%3A%2F%2Ftracker.leechers-paradise.org%3A6969","udp%3A%2F%2Fzer0day.ch%3A1337","udp%3A%2F%2Fopen.demonii.com%3A1337","udp%3A%2F%2Ftracker.coppersurfer.tk%3A6969","udp%3A%2F%2Fexodus.desync.com%3A6969"],"infoHash":"bcf2a56409c3695ec6496376fde5ed4d92ef9964","infoHashBuffer":{"type":"Buffer","data":[188,242,165,100,9,195,105,94,198,73,99,118,253,229,237,77,146,239,153,100]},"announce":[],"urlList":[]}}